<?xml version="1.0" standalone="no"?>
<!DOCTYPE svg PUBLIC "-//W3C//DTD SVG 20010904//EN"
 "http://www.w3.org/TR/2001/REC-SVG-20010904/DTD/svg10.dtd">
<svg version="1.0" xmlns="http://www.w3.org/2000/svg"
 width="512.000000pt" height="512.000000pt" viewBox="0 0 512.000000 512.000000"
 preserveAspectRatio="xMidYMid meet">
<metadata>
Created by potrace 1.14, written by Peter Selinger 2001-2017
</metadata>
<g transform="translate(0.000000,512.000000) scale(0.100000,-0.100000)"
fill="#000000" stroke="none">
<path d="M1265 4290 c-16 -11 -38 -34 -47 -52 -17 -31 -18 -131 -18 -1706 0
-1856 -5 -1721 64 -1763 30 -18 76 -19 1301 -19 1242 0 1271 1 1302 20 68 41
63 -97 63 1760 0 1857 5 1719 -63 1760 -31 19 -60 20 -1302 20 -1248 0 -1271
0 -1300 -20z m2586 -59 c19 -23 19 -64 19 -1702 0 -1666 0 -1679 -20 -1699
-15 -15 -33 -20 -73 -20 -28 0 -599 0 -1267 0 l-1215 -1 -17 22 c-17 20 -18
116 -18 1698 1 1302 3 1680 13 1692 30 39 12 39 1305 36 l1254 -2 19 -24z"/>
<path d="M1505 3995 l-25 -24 0 -351 0 -351 25 -24 24 -25 1036 0 1036 0 24
25 25 24 0 354 0 354 -23 21 -23 22 -1038 0 -1037 0 -24 -25z m2090 -55 c3
-11 4 -28 1 -37 -5 -17 -62 -18 -1002 -18 -804 0 -1000 -3 -1015 -13 -18 -12
-19 -31 -19 -287 0 -208 3 -276 13 -282 6 -4 464 -10 1017 -13 l1005 -5 -1025
0 -1025 0 -3 338 -2 337 1024 0 c1016 0 1025 0 1031 -20z"/>
<path d="M1523 3050 c-38 -16 -43 -41 -43 -224 0 -233 -18 -216 230 -216 249
0 230 -18 230 219 0 242 16 225 -217 228 -98 1 -188 -2 -200 -7z m357 -220 l0
-170 -167 2 -168 3 -3 168 -2 167 170 0 170 0 0 -170z"/>
<path d="M2093 3050 c-38 -15 -43 -41 -43 -222 0 -135 3 -179 14 -194 13 -17
31 -19 197 -24 189 -5 229 1 243 35 3 9 6 95 6 191 0 237 12 224 -222 223 -95
0 -183 -4 -195 -9z m355 -217 l-3 -168 -165 0 -165 0 -3 155 c-1 85 0 160 2
167 4 10 45 13 171 13 l165 0 -2 -167z"/>
<path d="M2662 3050 c-35 -15 -42 -50 -42 -225 0 -156 1 -165 23 -189 22 -25
24 -26 172 -26 230 -1 223 -2 245 20 19 19 20 33 20 200 0 244 13 230 -222
229 -95 0 -183 -4 -196 -9z m356 -217 l-3 -168 -165 0 -165 0 -3 155 c-1 85 0
160 2 167 4 10 45 13 171 13 l165 0 -2 -167z"/>
<path d="M3231 3046 c-14 -8 -28 -22 -32 -32 -4 -11 -8 -94 -8 -185 -1 -154 1
-168 20 -193 l20 -26 193 0 c174 0 195 2 209 18 15 16 17 46 17 205 l0 186
-26 20 c-25 19 -40 21 -198 21 -125 -1 -178 -4 -195 -14z m361 -58 c2 -7 3
-80 1 -163 -1 -82 -3 -153 -3 -158 0 -4 -75 -6 -167 -5 l-168 3 -3 155 c-1 85
0 160 2 167 7 18 332 19 338 1z"/>
<path d="M1500 2500 c-19 -19 -20 -33 -20 -200 0 -244 -14 -230 230 -230 244
0 230 -14 230 228 0 238 17 222 -233 222 -174 0 -188 -1 -207 -20z m364 -36
c14 -5 16 -30 16 -170 l0 -164 -170 0 -170 0 0 164 c0 148 2 165 18 169 26 7
288 8 306 1z"/>
<path d="M2070 2498 c-19 -20 -20 -34 -20 -200 0 -242 -14 -228 230 -228 244
0 230 -14 230 228 0 239 18 222 -230 222 -182 0 -190 -1 -210 -22z m378 -200
l2 -168 -170 0 -170 0 0 164 c0 148 2 165 18 169 9 3 85 5 167 4 l150 -2 3
-167z"/>
<path d="M2641 2494 c-19 -25 -21 -40 -21 -201 0 -236 -14 -223 230 -223 244
0 230 -14 230 230 0 238 19 220 -229 220 l-190 0 -20 -26z m377 -196 l2 -168
-170 0 -170 0 0 164 c0 122 3 166 13 170 6 3 82 4 167 3 l155 -2 3 -167z"/>
<path d="M3210 2493 c-20 -26 -21 -36 -18 -206 4 -233 -13 -217 228 -217 164
0 179 2 204 21 l26 20 0 189 c0 184 -1 189 -22 204 -18 13 -56 16 -209 16
l-188 0 -21 -27z m379 -42 c7 -13 9 -285 3 -313 -1 -5 -78 -8 -172 -8 l-170 0
0 163 c0 90 3 166 6 170 4 3 78 6 166 5 134 -1 160 -4 167 -17z"/>
<path d="M1502 1967 c-21 -22 -22 -32 -22 -203 0 -240 -17 -224 232 -224 l187
0 20 26 c19 25 21 40 21 204 0 236 16 220 -231 220 -181 0 -186 -1 -207 -23z
m378 -202 l0 -165 -170 0 -170 0 0 165 0 165 170 0 170 0 0 -165z"/>
<path d="M2071 1964 c-19 -25 -21 -40 -21 -199 0 -159 2 -174 21 -199 l20 -26
189 0 189 0 20 26 c19 25 21 40 21 204 0 236 17 220 -232 220 l-187 0 -20 -26z
m379 -199 l0 -165 -170 0 -170 0 0 165 0 165 170 0 170 0 0 -165z"/>
<path d="M2641 1964 c-19 -25 -21 -40 -21 -201 0 -237 -14 -223 234 -223 l185
0 20 26 c19 25 21 40 21 203 0 238 18 221 -230 221 l-189 0 -20 -26z m379
-199 l0 -165 -170 0 -170 0 0 165 0 165 170 0 170 0 0 -165z"/>
<path d="M3214 1969 c-18 -20 -19 -45 -22 -463 -3 -437 -2 -443 18 -469 l21
-27 190 0 c176 0 190 1 209 20 19 19 20 33 20 470 0 437 -1 451 -20 470 -19
19 -33 20 -208 20 -179 0 -190 -1 -208 -21z m377 -469 l2 -425 -172 -3 -171
-2 0 430 0 430 170 -2 170 -3 1 -425z"/>
<path d="M1505 1435 c-25 -24 -25 -26 -25 -203 0 -239 -18 -222 230 -222 l189
0 20 26 c19 25 21 40 21 201 0 236 14 223 -230 223 -179 0 -181 0 -205 -25z
m375 -200 l0 -165 -170 0 -170 0 0 165 0 165 170 0 170 0 0 -165z"/>
<path d="M2075 1435 c-25 -24 -25 -27 -25 -198 0 -161 2 -176 21 -201 l20 -26
189 0 189 0 20 26 c19 25 21 40 21 201 0 236 14 223 -230 223 -179 0 -181 0
-205 -25z m375 -200 l0 -165 -170 0 -170 0 0 165 0 165 170 0 170 0 0 -165z"/>
<path d="M2645 1435 c-25 -24 -25 -27 -25 -198 0 -161 2 -176 21 -201 l20 -26
190 0 c248 0 229 -19 229 224 l0 185 -26 20 c-25 19 -40 21 -206 21 -177 0
-179 0 -203 -25z m375 -200 l0 -165 -170 0 -170 0 0 165 0 165 170 0 170 0 0
-165z"/>
</g>
</svg>
